<mxfile host="app.diagrams.net" modified="2021-03-27T04:35:24.224Z" agent="5.0 (Windows NT 10.0; Win64; x64) AppleWebKit/537.36 (KHTML, like Gecko) Chrome/89.0.4389.90 Safari/537.36" etag="e0xnYu5yFzlym22PA2E6" version="14.4.8" type="github">
  <diagram id="3228e29e-7158-1315-38df-8450db1d8a1d" name="Page-1">
    <mxGraphModel dx="2062" dy="1122" grid="1" gridSize="10" guides="1" tooltips="1" connect="1" arrows="1" fold="1" page="1" pageScale="1" pageWidth="1169" pageHeight="827" background="#ffffff" math="0" shadow="0">
      <root>
        <mxCell id="0" />
        <mxCell id="1" parent="0" />
        <mxCell id="21531" value="" style="ellipse;fillColor=#F08705;opacity=60;strokeColor=none;html=1;fontColor=#FFFFFF;aspect=fixed;" parent="1" vertex="1">
          <mxGeometry x="339.5" y="308.5" width="400" height="400" as="geometry" />
        </mxCell>
        <mxCell id="21532" value="" style="ellipse;fillColor=#12AAB5;opacity=60;strokeColor=none;html=1;fontColor=#FFFFFF;aspect=fixed;" parent="1" vertex="1">
          <mxGeometry x="384.5" y="215" width="170" height="170" as="geometry" />
        </mxCell>
        <mxCell id="21533" value="" style="ellipse;fillColor=#e85642;opacity=60;strokeColor=none;html=1;fontColor=#FFFFFF;aspect=fixed;" parent="1" vertex="1">
          <mxGeometry x="515" y="180" width="240" height="240" as="geometry" />
        </mxCell>
        <mxCell id="21534" value="Application" style="text;fontSize=24;align=center;verticalAlign=middle;html=1;fontColor=#FFFFFF;" parent="1" vertex="1">
          <mxGeometry x="360" y="235" width="190" height="70" as="geometry" />
        </mxCell>
        <mxCell id="21536" value="Platform" style="text;fontSize=24;align=center;verticalAlign=middle;html=1;fontColor=#FFFFFF;" parent="1" vertex="1">
          <mxGeometry x="444.5" y="460" width="190" height="70" as="geometry" />
        </mxCell>
        <mxCell id="21539" value="7" style="text;align=center;html=1;fontColor=#FFFFFF;fontSize=16;" parent="1" vertex="1">
          <mxGeometry x="585" y="360" width="40" height="40" as="geometry" />
        </mxCell>
        <mxCell id="21540" value="24" style="text;align=center;html=1;fontColor=#FFFFFF;fontSize=16;" parent="1" vertex="1">
          <mxGeometry x="615" y="250" width="40" height="40" as="geometry" />
        </mxCell>
        <mxCell id="hyes9AVPk7VusDJgzoCF-21540" value="Network" style="text;fontSize=24;align=center;verticalAlign=middle;html=1;fontColor=#FFFFFF;" vertex="1" parent="1">
          <mxGeometry x="540" y="206.5" width="190" height="70" as="geometry" />
        </mxCell>
        <mxCell id="hyes9AVPk7VusDJgzoCF-21541" value="17" style="text;align=center;html=1;fontColor=#FFFFFF;fontSize=16;" vertex="1" parent="1">
          <mxGeometry x="435" y="280" width="40" height="40" as="geometry" />
        </mxCell>
        <mxCell id="hyes9AVPk7VusDJgzoCF-21542" value="40" style="text;align=center;html=1;fontColor=#FFFFFF;fontSize=16;" vertex="1" parent="1">
          <mxGeometry x="515" y="520" width="40" height="40" as="geometry" />
        </mxCell>
        <mxCell id="hyes9AVPk7VusDJgzoCF-21543" value="2" style="text;align=center;html=1;fontColor=#FFFFFF;fontSize=16;" vertex="1" parent="1">
          <mxGeometry x="460" y="335" width="40" height="40" as="geometry" />
        </mxCell>
        <mxCell id="hyes9AVPk7VusDJgzoCF-21544" value="1" style="text;align=center;html=1;fontColor=#FFFFFF;fontSize=16;" vertex="1" parent="1">
          <mxGeometry x="514.5" y="320" width="40" height="40" as="geometry" />
        </mxCell>
        <mxCell id="hyes9AVPk7VusDJgzoCF-21545" value="1" style="text;align=center;html=1;fontColor=#FFFFFF;fontSize=16;" vertex="1" parent="1">
          <mxGeometry x="514.5" y="276.5" width="40" height="40" as="geometry" />
        </mxCell>
      </root>
    </mxGraphModel>
  </diagram>
</mxfile>
